<svg width="184" height="184" viewBox="0 0 184 184" fill="none" xmlns="http://www.w3.org/2000/svg">
<g filter="url(#filter0_d_1_997)">
<rect x="34" y="28" width="88" height="88" rx="24" fill="white" fill-opacity="0.5" shape-rendering="crispEdges"/>
<rect x="34.5" y="28.5" width="87" height="87" rx="23.5" stroke="url(#paint0_linear_1_997)" shape-rendering="crispEdges"/>
</g>
<path d="M99.0875 58.3186L73.1612 56.8508L54 58.3186V87.2355C54 87.7395 54.4086 88.1479 54.9125 88.1479H98.1751C98.679 88.1479 99.0874 87.7395 99.0874 87.2357V58.3186H99.0875Z" fill="#F6F9F9"/>
<path d="M54.9125 88.1481H98.1752C98.6791 88.1481 99.0875 87.7396 99.0875 87.2358V58.3187L95.2244 58.1216V73.245C95.2244 75.014 93.6593 76.375 91.9078 76.1267C91.5388 76.0744 91.1608 76.0499 90.7761 76.0553C86.8693 76.1102 83.6765 79.3064 83.6255 83.2132C83.6251 83.2406 83.6249 83.268 83.6248 83.2953C83.6215 84.9071 82.3265 86.2167 80.7147 86.2167H54V87.2357C54 87.7395 54.4086 88.1481 54.9125 88.1481Z" fill="#E7ECF1"/>
<path d="M94.7779 76.2551V78.8471C94.7779 78.9473 94.6967 79.0285 94.5965 79.0285H90.9159C90.8157 79.0285 90.7344 78.9473 90.7344 78.8471V76.2551C90.7344 76.1549 90.8157 76.0737 90.9159 76.0737H94.5965C94.6966 76.0736 94.7779 76.1549 94.7779 76.2551ZM94.7779 71.9394C94.7779 71.8392 94.6967 71.758 94.5965 71.758H90.9159C90.8157 71.758 90.7344 71.8392 90.7344 71.9394V74.5314C90.7344 74.6316 90.8157 74.7128 90.9159 74.7128H94.5965C94.6967 74.7128 94.7779 74.6316 94.7779 74.5314V71.9394ZM94.7779 67.6237C94.7779 67.5235 94.6967 67.4423 94.5965 67.4423H90.9159C90.8157 67.4423 90.7344 67.5236 90.7344 67.6237V70.2157C90.7344 70.3159 90.8157 70.3971 90.9159 70.3971H94.5965C94.6967 70.3971 94.7779 70.3159 94.7779 70.2157V67.6237ZM94.7779 63.3081C94.7779 63.2079 94.6967 63.1267 94.5965 63.1267H90.9159C90.8157 63.1267 90.7344 63.208 90.7344 63.3081V65.9001C90.7344 66.0003 90.8157 66.0815 90.9159 66.0815H94.5965C94.6967 66.0815 94.7779 66.0003 94.7779 65.9001V63.3081Z" fill="#DA4A54"/>
<path d="M90.9159 79.0283H94.5965C94.6967 79.0283 94.7779 78.9471 94.7779 78.8469V76.2549C94.7779 76.1547 94.6967 76.0735 94.5965 76.0735H93.0047C92.657 76.1584 92.2865 76.1802 91.9073 76.1264C91.7441 76.1032 91.5792 76.0856 91.4127 76.0735H90.9159C90.8157 76.0735 90.7344 76.1547 90.7344 76.2549V78.8469C90.7345 78.947 90.8158 79.0283 90.9159 79.0283Z" fill="#D82E3D"/>
<path d="M83.9695 70.2158C83.9695 70.316 83.8882 70.3972 83.788 70.3972H80.1074C80.0071 70.3972 79.926 70.316 79.926 70.2158V67.6238C79.926 67.5236 80.0071 67.4424 80.1074 67.4424H83.788C83.8882 67.4424 83.9695 67.5237 83.9695 67.6238V70.2158ZM83.9695 63.3082C83.9695 63.208 83.8882 63.1268 83.788 63.1268H80.1074C80.0071 63.1268 79.926 63.2081 79.926 63.3082V65.9002C79.926 66.0004 80.0071 66.0816 80.1074 66.0816H83.788C83.8882 66.0816 83.9695 66.0004 83.9695 65.9002V63.3082ZM83.7881 76.0737H80.1075C80.0072 76.0737 79.9261 76.1549 79.9261 76.2551V78.8471C79.9261 78.9473 80.0072 79.0285 80.1075 79.0285H83.7881C83.8883 79.0285 83.9696 78.9473 83.9696 78.8471V76.2552C83.9695 76.155 83.8883 76.0737 83.7881 76.0737ZM63.8767 66.0816H67.5752C67.6755 66.0816 67.7567 66.0004 67.7567 65.9002V63.3082C67.7567 63.208 67.6755 63.1268 67.5752 63.1268H63.8767C63.7765 63.1268 63.6953 63.2081 63.6953 63.3082V65.9002C63.6953 66.0003 63.7765 66.0816 63.8767 66.0816ZM63.6953 70.2158C63.6953 70.316 63.7765 70.3972 63.8767 70.3972H67.5752C67.6755 70.3972 67.7567 70.316 67.7567 70.2158V67.6238C67.7567 67.5236 67.6755 67.4424 67.5752 67.4424H63.8767C63.7765 67.4424 63.6953 67.5237 63.6953 67.6238V70.2158ZM83.9695 71.9395C83.9695 71.8393 83.8882 71.7581 83.788 71.7581H80.1074C80.0071 71.7581 79.926 71.8393 79.926 71.9395V74.5315C79.926 74.6317 80.0071 74.7129 80.1074 74.7129H83.788C83.8882 74.7129 83.9695 74.6317 83.9695 74.5315V71.9395ZM63.6953 74.5315C63.6953 74.6317 63.7765 74.7129 63.8767 74.7129H67.5752C67.6755 74.7129 67.7567 74.6317 67.7567 74.5315V71.9395C67.7567 71.8393 67.6755 71.7581 67.5752 71.7581H63.8767C63.7765 71.7581 63.6953 71.8393 63.6953 71.9395V74.5315ZM89.1924 76.0737H85.5118C85.4116 76.0737 85.3304 76.1549 85.3304 76.2551V78.8471C85.3304 78.9473 85.4116 79.0285 85.5118 79.0285H89.1924C89.2926 79.0285 89.3738 78.9473 89.3738 78.8471V76.2552C89.3738 76.155 89.2926 76.0737 89.1924 76.0737ZM89.3738 71.9395C89.3738 71.8393 89.2926 71.7581 89.1924 71.7581H85.5118C85.4116 71.7581 85.3304 71.8393 85.3304 71.9395V74.5315C85.3304 74.6317 85.4116 74.7129 85.5118 74.7129H89.1924C89.2926 74.7129 89.3738 74.6317 89.3738 74.5315V71.9395ZM89.3738 67.6238C89.3738 67.5236 89.2926 67.4424 89.1924 67.4424H85.5118C85.4116 67.4424 85.3304 67.5237 85.3304 67.6238V70.2158C85.3304 70.316 85.4116 70.3972 85.5118 70.3972H89.1924C89.2926 70.3972 89.3738 70.316 89.3738 70.2158V67.6238ZM89.3738 63.3082C89.3738 63.208 89.2926 63.1268 89.1924 63.1268H85.5118C85.4116 63.1268 85.3304 63.2081 85.3304 63.3082V65.9002C85.3304 66.0004 85.4116 66.0816 85.5118 66.0816H89.1924C89.2926 66.0816 89.3738 66.0004 89.3738 65.9002V63.3082ZM63.6953 83.1585C63.6953 83.2587 63.7765 83.3399 63.8767 83.3399H67.5752C67.6755 83.3399 67.7567 83.2587 67.7567 83.1585V80.5708C67.7567 80.4705 67.6755 80.3894 67.5752 80.3894H63.8767C63.7765 80.3894 63.6953 80.4705 63.6953 80.5708V83.1585ZM74.5217 78.8471C74.5217 78.9473 74.603 79.0285 74.7032 79.0285H78.3838C78.484 79.0285 78.5652 78.9473 78.5652 78.8471V76.2552C78.5652 76.155 78.4839 76.0738 78.3838 76.0738H74.7032C74.6029 76.0738 74.5217 76.155 74.5217 76.2552V78.8471ZM74.7032 70.3972H78.3839C78.4841 70.3972 78.5653 70.316 78.5653 70.2158V67.6238C78.5653 67.5236 78.484 67.4424 78.3839 67.4424H74.7032C74.603 67.4424 74.5218 67.5237 74.5218 67.6238V70.2158C74.5217 70.316 74.603 70.3972 74.7032 70.3972ZM74.5217 74.5315C74.5217 74.6317 74.603 74.7129 74.7032 74.7129H78.3838C78.484 74.7129 78.5652 74.6317 78.5652 74.5315V71.9395C78.5652 71.8393 78.4839 71.7581 78.3838 71.7581H74.7032C74.6029 71.7581 74.5217 71.8393 74.5217 71.9395V74.5315ZM74.5217 83.1585C74.5217 83.2587 74.603 83.3399 74.7032 83.3399H78.3838C78.484 83.3399 78.5652 83.2587 78.5652 83.1585V80.5708C78.5652 80.4705 78.4839 80.3894 78.3838 80.3894H74.7032C74.6029 80.3894 74.5217 80.4705 74.5217 80.5708V83.1585ZM78.3838 63.1267H74.7032C74.6029 63.1267 74.5217 63.208 74.5217 63.3081V65.9001C74.5217 66.0003 74.603 66.0815 74.7032 66.0815H78.3838C78.484 66.0815 78.5652 66.0003 78.5652 65.9001V63.3081C78.5653 63.208 78.484 63.1267 78.3838 63.1267ZM63.6953 78.8471C63.6953 78.9473 63.7765 79.0285 63.8767 79.0285H67.5752C67.6755 79.0285 67.7567 78.9473 67.7567 78.8471V76.2552C67.7567 76.155 67.6755 76.0738 67.5752 76.0738H63.8767C63.7765 76.0738 63.6953 76.155 63.6953 76.2552V78.8471ZM69.1175 83.1585C69.1175 83.2587 69.1987 83.3399 69.2989 83.3399H72.9796C73.0798 83.3399 73.161 83.2587 73.161 83.1585V80.5708C73.161 80.4705 73.0798 80.3894 72.9796 80.3894H69.2989C69.1987 80.3894 69.1175 80.4705 69.1175 80.5708V83.1585ZM69.1175 70.2158C69.1175 70.316 69.1987 70.3972 69.2989 70.3972H72.9796C73.0798 70.3972 73.161 70.316 73.161 70.2158V67.6238C73.161 67.5236 73.0798 67.4424 72.9796 67.4424H69.2989C69.1987 67.4424 69.1175 67.5237 69.1175 67.6238V70.2158ZM69.2989 66.0816H72.9796C73.0798 66.0816 73.161 66.0004 73.161 65.9002V63.3082C73.161 63.208 73.0798 63.1268 72.9796 63.1268H69.2989C69.1987 63.1268 69.1175 63.2081 69.1175 63.3082V65.9002C69.1175 66.0003 69.1987 66.0816 69.2989 66.0816ZM69.1175 74.5315C69.1175 74.6317 69.1987 74.7129 69.2989 74.7129H72.9796C73.0798 74.7129 73.161 74.6317 73.161 74.5315V71.9395C73.161 71.8393 73.0798 71.7581 72.9796 71.7581H69.2989C69.1987 71.7581 69.1175 71.8393 69.1175 71.9395V74.5315ZM69.1175 78.8471C69.1175 78.9473 69.1987 79.0285 69.2989 79.0285H72.9796C73.0798 79.0285 73.161 78.9473 73.161 78.8471V76.2552C73.161 76.155 73.0798 76.0738 72.9796 76.0738H69.2989C69.1987 76.0738 69.1175 76.155 69.1175 76.2552V78.8471Z" fill="#DAE4EA"/>
<path d="M85.3302 78.8469C85.3302 78.9471 85.4114 79.0283 85.5116 79.0283H89.1922C89.2924 79.0283 89.3736 78.9471 89.3736 78.8469V76.255C89.3736 76.2409 89.3719 76.2271 89.3688 76.2139C87.7656 76.5576 86.3532 77.4366 85.3301 78.6522V78.8469H85.3302Z" fill="#C6D0DA"/>
<path d="M98.1748 52.9868H54.9127C54.4086 52.9868 54 53.3955 54 53.8995V58.3184H99.0875V53.8995C99.0875 53.3955 98.6788 52.9868 98.1748 52.9868Z" fill="#61A2F9"/>
<path d="M58.3086 70.2158V67.6238C58.3086 67.5236 58.3898 67.4424 58.49 67.4424H62.1526C62.2528 67.4424 62.334 67.5237 62.334 67.6238V70.2158C62.334 70.316 62.2527 70.3972 62.1526 70.3972H58.4901C58.3899 70.3972 58.3086 70.316 58.3086 70.2158ZM58.3086 74.5315C58.3086 74.6317 58.3898 74.7129 58.49 74.7129H62.1526C62.2528 74.7129 62.334 74.6317 62.334 74.5315V71.9395C62.334 71.8393 62.2527 71.7581 62.1526 71.7581H58.4901C58.3899 71.7581 58.3087 71.8393 58.3087 71.9395V74.5315H58.3086ZM58.3086 83.1584C58.3086 83.2587 58.3898 83.3398 58.49 83.3398H62.1526C62.2528 83.3398 62.334 83.2587 62.334 83.1584V80.5708C62.334 80.4705 62.2527 80.3893 62.1526 80.3893H58.4901C58.3899 80.3893 58.3087 80.4705 58.3087 80.5708V83.1584H58.3086ZM58.3086 78.8471C58.3086 78.9473 58.3898 79.0285 58.49 79.0285H62.1526C62.2528 79.0285 62.334 78.9473 62.334 78.8471V76.2552C62.334 76.1549 62.2527 76.0738 62.1526 76.0738H58.4901C58.3899 76.0738 58.3087 76.1549 58.3087 76.2552V78.8471H58.3086Z" fill="#DA4A54"/>
<path d="M59.0278 55.8814H57.88C57.3778 55.8814 56.9707 55.4742 56.9707 54.9721V51.9093C56.9707 51.4071 57.3779 51 57.88 51H59.0278C59.53 51 59.937 51.4072 59.937 51.9093V54.972C59.937 55.4742 59.53 55.8814 59.0278 55.8814Z" fill="white"/>
<path d="M64.982 55.8814H63.9249C63.4227 55.8814 63.0156 55.4742 63.0156 54.9721V51.9093C63.0156 51.4071 63.4228 51 63.9249 51H64.9819C65.4842 51 65.8912 51.4072 65.8912 51.9093V54.972C65.8913 55.4742 65.4842 55.8814 64.982 55.8814Z" fill="white"/>
<path d="M71.0269 55.8814H69.9698C69.4676 55.8814 69.0605 55.4742 69.0605 54.9721V51.9093C69.0605 51.4071 69.4676 51 69.9698 51H71.0269C71.5291 51 71.9361 51.4072 71.9361 51.9093V54.972C71.9361 55.4742 71.5291 55.8814 71.0269 55.8814Z" fill="white"/>
<path d="M77.0737 55.8814H76.0167C75.5145 55.8814 75.1074 55.4742 75.1074 54.9721V51.9093C75.1074 51.4071 75.5146 51 76.0167 51H77.0737C77.576 51 77.983 51.4072 77.983 51.9093V54.972C77.983 55.4742 77.576 55.8814 77.0737 55.8814Z" fill="white"/>
<path d="M83.1187 55.8814H82.0616C81.5594 55.8814 81.1523 55.4742 81.1523 54.9721V51.9093C81.1523 51.4071 81.5594 51 82.0616 51H83.1187C83.6209 51 84.0279 51.4072 84.0279 51.9093V54.972C84.028 55.4742 83.6209 55.8814 83.1187 55.8814Z" fill="white"/>
<path d="M89.1636 55.8814H88.1065C87.6043 55.8814 87.1973 55.4742 87.1973 54.9721V51.9093C87.1973 51.4071 87.6044 51 88.1065 51H89.1636C89.6658 51 90.0729 51.4072 90.0729 51.9093V54.972C90.073 55.4742 89.6658 55.8814 89.1636 55.8814Z" fill="white"/>
<path d="M98.1751 52.9871H96.118L95.5728 54.4268C95.5728 54.9237 95.2246 55.8811 95.2246 55.8811V58.3185H99.0877V53.8996C99.0878 53.3956 98.6791 52.9871 98.1751 52.9871Z" fill="#5490F9"/>
<path d="M95.2085 55.8814H94.1515C93.6493 55.8814 93.2422 55.4742 93.2422 54.9721V51.9093C93.2422 51.4071 93.6493 51 94.1515 51H95.2085C95.7107 51 96.1178 51.4072 96.1178 51.9093V54.972C96.1178 55.4742 95.7106 55.8814 95.2085 55.8814Z" fill="white"/>
<path d="M94.7439 92.4973C98.751 92.4973 101.999 89.2488 101.999 85.2417C101.999 81.2345 98.751 77.9861 94.7439 77.9861C90.7367 77.9861 87.4883 81.2345 87.4883 85.2417C87.4883 89.2488 90.7367 92.4973 94.7439 92.4973Z" fill="#80E29D"/>
<path d="M95.9095 78.0789C97.2827 79.399 98.1372 81.2546 98.1372 83.3098C98.1372 87.317 94.8888 90.5654 90.8816 90.5654C90.4852 90.5654 90.0961 90.5335 89.7168 90.4724C91.021 91.7262 92.7927 92.497 94.7447 92.497C98.7519 92.497 102 89.2486 102 85.2414C102 81.6308 99.3629 78.6362 95.9095 78.0789Z" fill="#78D090"/>
<path d="M98.8619 83.6831L97.4908 82.3119C97.3467 82.1678 97.113 82.1678 96.9689 82.3119L94.3164 84.9645C94.1723 85.1086 93.9387 85.1086 93.7946 84.9645L92.5206 83.6905C92.3765 83.5464 92.1429 83.5464 91.9988 83.6905L90.6276 85.0617C90.4835 85.2058 90.4835 85.4394 90.6276 85.5835L93.7946 88.7505C93.9387 88.8946 94.1723 88.8946 94.3164 88.7505L98.8619 84.2049C99.006 84.0608 99.006 83.8272 98.8619 83.6831Z" fill="#F6F9F9"/>
<path d="M98.1284 82.9497C98.1342 83.0691 98.1372 83.1892 98.1372 83.31C98.1372 83.9531 98.0535 84.5766 97.8965 85.1704L98.8618 84.205C99.0059 84.0609 99.0059 83.8273 98.8618 83.6832L98.1284 82.9497Z" fill="#E7ECF1"/>
<defs>
<filter id="filter0_d_1_997" x="0" y="0" width="184" height="184" filterUnits="userSpaceOnUse" color-interpolation-filters="sRGB">
<feFlood flood-opacity="0" result="BackgroundImageFix"/>
<feColorMatrix in="SourceAlpha" type="matrix" values="0 0 0 0 0 0 0 0 0 0 0 0 0 0 0 0 0 0 127 0" result="hardAlpha"/>
<feOffset dx="14" dy="20"/>
<feGaussianBlur stdDeviation="24"/>
<feComposite in2="hardAlpha" operator="out"/>
<feColorMatrix type="matrix" values="0 0 0 0 0.0978704 0 0 0 0 0.0602778 0 0 0 0 0.173056 0 0 0 0.06 0"/>
<feBlend mode="normal" in2="BackgroundImageFix" result="effect1_dropShadow_1_997"/>
<feBlend mode="normal" in="SourceGraphic" in2="effect1_dropShadow_1_997" result="shape"/>
</filter>
<linearGradient id="paint0_linear_1_997" x1="78" y1="28" x2="78" y2="116" gradientUnits="userSpaceOnUse">
<stop stop-color="white"/>
<stop offset="1" stop-color="white" stop-opacity="0"/>
</linearGradient>
</defs>
</svg>
