<svg width="184" height="184" viewBox="0 0 184 184" fill="none" xmlns="http://www.w3.org/2000/svg">
<g filter="url(#filter0_d_1_975)">
<rect x="34" y="28" width="88" height="88" rx="24" fill="white" fill-opacity="0.5" shape-rendering="crispEdges"/>
<rect x="34.5" y="28.5" width="87" height="87" rx="23.5" stroke="url(#paint0_linear_1_975)" shape-rendering="crispEdges"/>
</g>
<path d="M80.4516 85.8206H75.5486L75.2773 87.3935C74.986 89.0823 76.2864 90.6262 78 90.6262C79.7138 90.6262 81.0141 89.0823 80.7228 87.3935L80.4516 85.8206Z" fill="#FFDD27"/>
<path d="M80.7608 87.7522C80.7559 87.6337 80.7432 87.5141 80.7224 87.3937L80.4511 85.8207L76.6054 84.9338L75.548 85.8207L75.2767 87.3937C75.2559 87.5141 75.2433 87.6338 75.2383 87.7522H80.7608Z" fill="#F9C91A"/>
<path d="M90.0004 78.1452C89.6854 77.5995 89.5195 76.9807 89.5195 76.3506V70.0593C89.5195 64.9542 86.1985 60.6245 81.5991 59.1131C81.4592 59.0671 81.4001 58.921 81.4621 58.7874C81.7325 58.2047 81.8599 57.5427 81.7991 56.8468C81.666 55.3218 80.3621 53.3738 78.0051 53.3738C75.8867 53.3738 74.1862 55.0932 74.1862 57.1877C74.1862 57.7485 74.3079 58.2815 74.5264 58.7616C74.5936 58.9093 74.5206 59.0734 74.3665 59.1246C69.7851 60.6462 66.4808 64.9668 66.4808 70.0592L66.4808 76.3507C66.4808 76.9807 66.315 77.5996 66 78.1452L78.2558 80.6003L90.0004 78.1452ZM76.6482 57.1876C76.6482 56.4409 77.2536 55.8357 78.0002 55.8357C78.7469 55.8357 79.3522 56.441 79.3522 57.1876C79.3522 57.9342 78.7468 58.5396 78.0002 58.5396C77.2535 58.5397 76.6482 57.9343 76.6482 57.1876Z" fill="#FFDD27"/>
<path d="M85.6559 67.6447V73.936C85.6559 74.566 85.8217 75.1849 86.1367 75.7305L87.5307 78.1451L89.3904 78.8926L89.9999 78.1451C89.6849 77.5994 89.519 76.9806 89.519 76.3505V70.0592C89.519 65.1215 86.4122 60.9092 82.0469 59.2708C84.2691 61.3708 85.6559 64.3458 85.6559 67.6447Z" fill="#F9C91A"/>
<path d="M102 71.0727C102 74.8898 100.621 78.3841 98.3341 81.085C97.8813 81.62 97.0641 81.6458 96.5685 81.1503L96.562 81.1437C96.1156 80.6974 96.0944 79.9866 96.5014 79.5043C98.4246 77.2254 99.5852 74.2826 99.5852 71.0727C99.5852 67.8636 98.4244 64.92 96.5018 62.6409C96.0949 62.1587 96.1163 61.4482 96.5623 61.002L96.5693 60.995C97.0649 60.4991 97.8824 60.5249 98.3353 61.0601C100.622 63.7619 102 67.2566 102 71.0727Z" fill="#FFDD27"/>
<path d="M97.1712 71.0729C97.1712 73.5266 96.3391 75.7905 94.9417 77.596C94.4961 78.1718 93.6475 78.229 93.1326 77.7141L93.1312 77.7126C92.7007 77.2822 92.6616 76.6007 93.0337 76.1192C94.1134 74.7222 94.7567 72.9716 94.7567 71.073C94.7567 69.1743 94.1134 67.4237 93.0337 66.0268C92.6616 65.5452 92.7007 64.8636 93.1312 64.4332L93.1326 64.4317C93.6475 63.9168 94.4961 63.9739 94.9417 64.5498C96.3391 66.3553 97.1712 68.6192 97.1712 71.0729Z" fill="#FFDD27"/>
<path d="M54 71.0727C54 74.8898 55.3791 78.3841 57.6656 81.085C58.1184 81.62 58.9357 81.6458 59.4312 81.1503L59.4378 81.1437C59.8841 80.6974 59.9054 79.9866 59.4983 79.5043C57.5752 77.2254 56.4145 74.2826 56.4145 71.0727C56.4145 67.8636 57.5753 64.92 59.498 62.6409C59.9048 62.1587 59.8835 61.4482 59.4375 61.002L59.4305 60.995C58.9349 60.4991 58.1174 60.5249 57.6645 61.0601C55.3782 63.7619 54 67.2566 54 71.0727V71.0727Z" fill="#FFDD27"/>
<path d="M58.8281 71.0729C58.8281 73.5266 59.6602 75.7905 61.0576 77.596C61.5033 78.1718 62.3518 78.229 62.8667 77.7141L62.8682 77.7126C63.2986 77.2822 63.3378 76.6007 62.9656 76.1192C61.886 74.7222 61.2427 72.9716 61.2427 71.073C61.2427 69.1743 61.886 67.4237 62.9656 66.0268C63.3378 65.5452 63.2986 64.8636 62.8682 64.4332L62.8667 64.4317C62.3518 63.9168 61.5033 63.9739 61.0576 64.5498C59.6602 66.3553 58.8281 68.6192 58.8281 71.0729Z" fill="#FFDD27"/>
<path d="M78 61.726C77.2998 61.726 76.628 61.5705 76.0032 61.264C75.6441 61.0879 75.4958 60.6538 75.6719 60.2947C75.8481 59.9354 76.2821 59.7872 76.6413 59.9634C77.0658 60.1716 77.5229 60.2772 78 60.2772C78.4729 60.2772 78.9264 60.1734 79.3478 59.9688C79.7075 59.794 80.1411 59.9439 80.3157 60.3039C80.4906 60.6637 80.3406 61.0971 79.9807 61.2718C79.3604 61.5732 78.6941 61.726 78 61.726Z" fill="#F9C91A"/>
<path d="M89.9995 78.1453H65.9992L61.9227 85.2059C61.7649 85.479 61.9622 85.8206 62.2777 85.8206H93.7211C94.0366 85.8206 94.2337 85.479 94.0761 85.2059L89.9995 78.1453Z" fill="#F6E266"/>
<path d="M94.0761 85.2057L89.9996 78.145H87.5304L88.0932 79.1197C89.193 81.0246 87.8182 83.4058 85.6186 83.4058H62.9618L61.9227 85.2056C61.7649 85.4788 61.9622 85.8203 62.2777 85.8203H93.7211C94.0367 85.8204 94.2338 85.479 94.0761 85.2057Z" fill="#F4D820"/>
<defs>
<filter id="filter0_d_1_975" x="0" y="0" width="184" height="184" filterUnits="userSpaceOnUse" color-interpolation-filters="sRGB">
<feFlood flood-opacity="0" result="BackgroundImageFix"/>
<feColorMatrix in="SourceAlpha" type="matrix" values="0 0 0 0 0 0 0 0 0 0 0 0 0 0 0 0 0 0 127 0" result="hardAlpha"/>
<feOffset dx="14" dy="20"/>
<feGaussianBlur stdDeviation="24"/>
<feComposite in2="hardAlpha" operator="out"/>
<feColorMatrix type="matrix" values="0 0 0 0 0.0978704 0 0 0 0 0.0602778 0 0 0 0 0.173056 0 0 0 0.06 0"/>
<feBlend mode="normal" in2="BackgroundImageFix" result="effect1_dropShadow_1_975"/>
<feBlend mode="normal" in="SourceGraphic" in2="effect1_dropShadow_1_975" result="shape"/>
</filter>
<linearGradient id="paint0_linear_1_975" x1="78" y1="28" x2="78" y2="116" gradientUnits="userSpaceOnUse">
<stop stop-color="white"/>
<stop offset="1" stop-color="white" stop-opacity="0"/>
</linearGradient>
</defs>
</svg>
