<svg width="184" height="184" viewBox="0 0 184 184" fill="none" xmlns="http://www.w3.org/2000/svg">
<g filter="url(#filter0_d_1_945)">
<rect x="34" y="28" width="88" height="88" rx="24" fill="white" fill-opacity="0.5" shape-rendering="crispEdges"/>
<rect x="34.5" y="28.5" width="87" height="87" rx="23.5" stroke="url(#paint0_linear_1_945)" shape-rendering="crispEdges"/>
</g>
<g clip-path="url(#clip0_1_945)">
<path d="M99.2379 57.6028L80.6153 56.0872L56.7637 57.6028V94.8254C56.7637 95.4742 57.2895 96 57.9383 96H98.0631C98.7119 96 99.2379 95.474 99.2379 94.8251L99.2379 57.6028Z" fill="#F6F9F9"/>
<path d="M99.2379 57.6029L95.3747 55.6714V85.1133C95.3747 90.0591 91.3653 94.0685 86.4195 94.0685H56.7637V94.8255C56.7637 95.4743 57.2895 96.0001 57.9383 96.0001H98.063C98.7118 96.0001 99.2379 95.4741 99.2379 94.8252V57.6029Z" fill="#E7ECF1"/>
<path d="M98.0631 50.74H57.9385C57.2896 50.74 56.7637 51.2659 56.7637 51.9148V57.6029H99.2379V51.9148C99.2379 51.2659 98.7119 50.74 98.0631 50.74Z" fill="#61A2F9"/>
<path d="M98.0635 50.74H95.375V57.6029H99.2382V51.9148C99.2382 51.2659 98.7122 50.74 98.0635 50.74Z" fill="#5490F9"/>
<path d="M62.768 54.4656H62.108C61.4616 54.4656 60.9375 53.9415 60.9375 53.2951V49.1705C60.9375 48.5241 61.4616 48 62.108 48H62.768C63.4144 48 63.9384 48.5241 63.9384 49.1705V53.295C63.9384 53.9415 63.4145 54.4656 62.768 54.4656Z" fill="#DAE4EA"/>
<path d="M70.5492 54.4656H69.8892C69.2428 54.4656 68.7188 53.9415 68.7188 53.2951V49.1705C68.7188 48.5241 69.2428 48 69.8892 48H70.5492C71.1956 48 71.7197 48.5241 71.7197 49.1705V53.295C71.7197 53.9415 71.1957 54.4656 70.5492 54.4656Z" fill="#DAE4EA"/>
<path d="M78.3305 54.4656H77.6705C77.0241 54.4656 76.5 53.9415 76.5 53.2951V49.1705C76.5 48.5241 77.0241 48 77.6705 48H78.3305C78.9769 48 79.5009 48.5241 79.5009 49.1705V53.295C79.5009 53.9415 78.9769 54.4656 78.3305 54.4656Z" fill="#DAE4EA"/>
<path d="M86.1117 54.4656H85.4517C84.8053 54.4656 84.2812 53.9415 84.2812 53.2951V49.1705C84.2812 48.5241 84.8052 48 85.4517 48H86.1117C86.7581 48 87.2822 48.5241 87.2822 49.1705V53.295C87.2822 53.9415 86.7581 54.4656 86.1117 54.4656Z" fill="#DAE4EA"/>
<path d="M93.8949 54.4656H93.2349C92.5885 54.4656 92.0645 53.9415 92.0645 53.2951V49.1705C92.0645 48.5241 92.5884 48 93.2349 48H93.8949C94.5413 48 95.0654 48.5241 95.0654 49.1705V53.295C95.0654 53.9415 94.5413 54.4656 93.8949 54.4656Z" fill="#DAE4EA"/>
<path d="M69.7793 66.9244V65.2256C69.7793 65.0161 69.9492 64.8462 70.1587 64.8462H91.6164C91.8259 64.8462 91.9958 65.0161 91.9958 65.2256V66.9244C91.9958 67.134 91.8259 67.3038 91.6164 67.3038H70.1587C69.9492 67.3038 69.7793 67.134 69.7793 66.9244Z" fill="#DAE4EA"/>
<path d="M69.7793 71.8397V70.1409C69.7793 69.9314 69.9492 69.7615 70.1587 69.7615H91.6164C91.8259 69.7615 91.9958 69.9314 91.9958 70.1409V71.8397C91.9958 72.0493 91.8259 72.2191 91.6164 72.2191H70.1587C69.9492 72.2192 69.7793 72.0493 69.7793 71.8397Z" fill="#DAE4EA"/>
<path d="M69.7793 76.7553V75.0564C69.7793 74.8469 69.9492 74.677 70.1587 74.677H91.6164C91.8259 74.677 91.9958 74.8469 91.9958 75.0564V76.7553C91.9958 76.9648 91.8259 77.1347 91.6164 77.1347H70.1587C69.9492 77.1347 69.7793 76.9648 69.7793 76.7553Z" fill="#DAE4EA"/>
<path d="M69.7793 81.6705V79.9717C69.7793 79.7622 69.9492 79.5923 70.1587 79.5923H91.6164C91.8259 79.5923 91.9958 79.7622 91.9958 79.9717V81.6705C91.9958 81.8801 91.8259 82.0499 91.6164 82.0499H70.1587C69.9492 82.05 69.7793 81.8802 69.7793 81.6705Z" fill="#DAE4EA"/>
<path d="M69.7793 86.5858V84.887C69.7793 84.6774 69.9492 84.5076 70.1587 84.5076H91.6164C91.8259 84.5076 91.9958 84.6774 91.9958 84.887V86.5858C91.9958 86.7954 91.8259 86.9652 91.6164 86.9652H70.1587C69.9492 86.9652 69.7793 86.7954 69.7793 86.5858Z" fill="#DAE4EA"/>
<path d="M64.0078 66.9244V65.2256C64.0078 65.0161 64.1777 64.8462 64.3872 64.8462H66.5018C66.7113 64.8462 66.8812 65.0161 66.8812 65.2256V66.9244C66.8812 67.134 66.7113 67.3038 66.5018 67.3038H64.3872C64.1777 67.3038 64.0078 67.134 64.0078 66.9244Z" fill="#DAE4EA"/>
<path d="M64.0078 71.8397V70.1409C64.0078 69.9314 64.1777 69.7615 64.3872 69.7615H66.5018C66.7113 69.7615 66.8812 69.9314 66.8812 70.1409V71.8397C66.8812 72.0493 66.7113 72.2191 66.5018 72.2191H64.3872C64.1777 72.2192 64.0078 72.0493 64.0078 71.8397Z" fill="#DAE4EA"/>
<path d="M64.0078 76.7553V75.0564C64.0078 74.8469 64.1777 74.677 64.3872 74.677H66.5018C66.7113 74.677 66.8812 74.8469 66.8812 75.0564V76.7553C66.8812 76.9648 66.7113 77.1347 66.5018 77.1347H64.3872C64.1777 77.1347 64.0078 76.9648 64.0078 76.7553Z" fill="#DAE4EA"/>
<path d="M64.0078 81.6705V79.9717C64.0078 79.7622 64.1777 79.5923 64.3872 79.5923H66.5018C66.7113 79.5923 66.8812 79.7622 66.8812 79.9717V81.6705C66.8812 81.8801 66.7113 82.0499 66.5018 82.0499H64.3872C64.1777 82.05 64.0078 81.8802 64.0078 81.6705Z" fill="#DAE4EA"/>
<path d="M64.0078 86.5858V84.887C64.0078 84.6774 64.1777 84.5076 64.3872 84.5076H66.5018C66.7113 84.5076 66.8812 84.6774 66.8812 84.887V86.5858C66.8812 86.7954 66.7113 86.9652 66.5018 86.9652H64.3872C64.1777 86.9652 64.0078 86.7954 64.0078 86.5858Z" fill="#DAE4EA"/>
</g>
<defs>
<filter id="filter0_d_1_945" x="0" y="0" width="184" height="184" filterUnits="userSpaceOnUse" color-interpolation-filters="sRGB">
<feFlood flood-opacity="0" result="BackgroundImageFix"/>
<feColorMatrix in="SourceAlpha" type="matrix" values="0 0 0 0 0 0 0 0 0 0 0 0 0 0 0 0 0 0 127 0" result="hardAlpha"/>
<feOffset dx="14" dy="20"/>
<feGaussianBlur stdDeviation="24"/>
<feComposite in2="hardAlpha" operator="out"/>
<feColorMatrix type="matrix" values="0 0 0 0 0.0978704 0 0 0 0 0.0602778 0 0 0 0 0.173056 0 0 0 0.06 0"/>
<feBlend mode="normal" in2="BackgroundImageFix" result="effect1_dropShadow_1_945"/>
<feBlend mode="normal" in="SourceGraphic" in2="effect1_dropShadow_1_945" result="shape"/>
</filter>
<linearGradient id="paint0_linear_1_945" x1="78" y1="28" x2="78" y2="116" gradientUnits="userSpaceOnUse">
<stop stop-color="white"/>
<stop offset="1" stop-color="white" stop-opacity="0"/>
</linearGradient>
<clipPath id="clip0_1_945">
<rect width="48" height="48" fill="white" transform="translate(54 48)"/>
</clipPath>
</defs>
</svg>
